<?xml version="1.0" standalone="no"?><!DOCTYPE svg PUBLIC "-//W3C//DTD SVG 1.1//EN" "http://www.w3.org/Graphics/SVG/1.1/DTD/svg11.dtd"><svg t="1619599644599" class="icon" viewBox="0 0 1024 1024" version="1.1" xmlns="http://www.w3.org/2000/svg" p-id="5667" xmlns:xlink="http://www.w3.org/1999/xlink" width="200" height="200"><defs><style type="text/css"></style></defs><path d="M243.10631 275.98369906l450.86839125 0 0 49.95908813L243.10631 325.94278719 243.10631 275.98369906zM868.34319969 758.20843062c2.91066656-3.33661781 5.60164219-7.51362562 8.07196687-12.37177218 2.47032469-4.83032531 1.71147937-9.23949562-2.15086125-13.10951157l-6.98694281-7.31312156c-3.65704031-3.87289406-6.02663438-6.01320281-6.99269906-6.56386969-4.95695906-3.32606531-9.57718688-3.86617875-13.97964188-1.393935-4.41684562 2.35999969-8.82505687 5.80406531-13.22655281 10.21323563-11.30401594 11.18505656-22.37299125 22.04777156-33.44772281 32.7982425-10.96344656 10.64590219-21.393495 20.86681219-31.1836575 30.54856781-3.43734938 3.43543031-7.31312156 5.48460188-11.39611313 6.22905656-4.19523562 0.63892688-7.5328125-0.63892688-10.00313812-4.08970687l-6.88717031-7.19895938c-3.21765844-3.45174-6.5600325-7.10014594-9.99738188-10.96344656l-9.89089406-11.30209687c-3.23013-3.65704031-5.48076375-6.24248719-7.00037344-7.62491063-2.89723594-2.478-6.23289375-3.98993438-9.88417875-4.73726812-3.65608125-0.75980531-7.53185344 0.53339812-11.394195 3.98417906l-3.65800031 3.32606531c-2.04437437 1.60786969-3.97650375 3.54575625-5.92110563 5.81173969-1.93117031 2.15086125-3.86234156 4.0820325-5.906715 5.80022719l-3.65608125 3.22341468c-7.31408062 7.85899125-6.34801594 16.7809425 3.01043907 26.98650282 2.89627594 3.45174 6.77300812 7.65465 11.7146175 12.80827593 4.84183688 5.04521906 10.00409719 10.53078 15.37069875 16.34443875 5.48172375 5.80118719 10.86175594 11.50547906 16.24466625 17.10328407 5.36756063 5.58053625 10.00409719 10.0990725 13.97964187 13.44144656 3.87001594 3.96882938 9.25196719 5.69469937 16.13146313 5.48076375 6.87949594-0.2100975 12.04847156-2.25830906 15.37837312-6.13504031 6.87182062-6.34321969 14.73944625-13.97580469 23.55778781-23.00999907 8.80395094-8.92578844 18.06167437-18.06934875 27.51990188-27.31460062 9.56375531-9.136845 18.92125125-18.28136531 27.95928375-27.31364156C852.75760625 772.94212156 861.03679344 764.97951969 868.34319969 758.20843062L868.34319969 758.20843062zM768.43941406 611.85773656c22.05256875 0 42.80617781 4.18756125 62.37978656 12.6873975 19.67434125 8.49887812 36.77762438 20.10125156 51.51707157 34.62484406 14.61185344 14.52263344 26.33414531 31.62208031 34.83302343 50.97312 8.61304031 19.46040562 12.90037312 40.10368969 12.90037313 61.93944469 0 22.36819406-4.28829281 43.23500625-12.90037313 62.59372125-8.49791812 19.44985313-20.22021094 36.44281219-34.83302343 51.07672969-14.73944625 14.51208094-31.84273031 25.90051969-51.51707157 34.19025937-19.57360875 8.29357687-40.32721781 12.37177219-62.37978656 12.37177219-22.57637344 0-43.65712031-4.07819531-63.22497375-12.37177219-19.56689344-8.28973969-36.77762438-19.67817844-51.39523406-34.19025937-14.73944625-14.63391844-26.34182063-31.62687656-34.95390094-51.07672969-8.61304031-19.358715-12.90804844-40.22552719-12.90804844-62.59372125 0-21.836715 4.29596719-42.47903906 12.90804844-61.93944469 8.61208125-19.35103969 20.21349563-36.45048656 34.95390094-50.97312 14.61760969-14.52359344 31.82834062-26.12500688 51.39523406-34.62484406C724.78229375 616.04529688 745.86208156 611.85773656 768.43941406 611.85773656zM243.10631 376.31631312l450.86839125 1e-8 0 49.95141281L243.10631 426.26772688 243.10631 376.31631312 243.10631 376.31631312zM192.73949844 225.6168875l52.80259969 0 428.12796937 0 70.67336344 0 0 251.02628437L192.73949844 476.64317188 192.73949844 225.6168875zM92.41072156 831.25330625c0 25.58105625 23.1519825 46.305885 50.36681156 46.305885l461.61694407 0c-19.63021031-30.39891-31.039755-66.60476156-31.039755-105.47280937 0-107.4893625 87.16650094-194.65874156 194.65202625-194.65874157 27.22825969 0 53.13741281 5.60164219 76.66546125 15.69304032L844.67220781 476.64317188l-50.37448593 0L794.29772187 175.65780031 794.29772187 125.68624062 142.77753313 125.68624062l0 49.97155969 0 300.9844125L92.41072156 476.64221281 92.41072156 831.25330625 92.41072156 831.25330625z" fill="#333333" p-id="5668"></path></svg>