<?xml version="1.0" standalone="no"?><!DOCTYPE svg PUBLIC "-//W3C//DTD SVG 1.1//EN" "http://www.w3.org/Graphics/SVG/1.1/DTD/svg11.dtd"><svg t="1619599584658" class="icon" viewBox="0 0 1024 1024" version="1.1" xmlns="http://www.w3.org/2000/svg" p-id="4352" xmlns:xlink="http://www.w3.org/1999/xlink" width="200" height="200"><defs><style type="text/css"></style></defs><path d="M512 608c-9.6 0-16-3.2-22.4-9.6l-384-384c-12.8-12.8-12.8-32 0-44.8s32-12.8 44.8 0L512 531.2 873.6 169.6c12.8-12.8 32-12.8 44.8 0s12.8 32 0 44.8l-384 384c-6.4 6.4-12.8 9.6-22.4 9.6z" fill="#333333" p-id="4353"></path><path d="M512 864c-9.6 0-16-3.2-22.4-9.6l-384-384c-12.8-12.8-12.8-32 0-44.8s32-12.8 44.8 0L512 787.2l361.6-361.6c12.8-12.8 32-12.8 44.8 0s12.8 32 0 44.8l-384 384c-6.4 6.4-12.8 9.6-22.4 9.6z" fill="#333333" p-id="4354"></path></svg>