<?xml version="1.0" standalone="no"?><!DOCTYPE svg PUBLIC "-//W3C//DTD SVG 1.1//EN" "http://www.w3.org/Graphics/SVG/1.1/DTD/svg11.dtd"><svg t="1619599589443" class="icon" viewBox="0 0 1024 1024" version="1.1" xmlns="http://www.w3.org/2000/svg" p-id="4484" xmlns:xlink="http://www.w3.org/1999/xlink" width="200" height="200"><defs><style type="text/css"></style></defs><path d="M896 864c-9.6 0-16-3.2-22.4-9.6L512 492.8 150.4 854.4c-12.8 12.8-32 12.8-44.8 0s-12.8-32 0-44.8l384-384c12.8-12.8 32-12.8 44.8 0l384 384c12.8 12.8 12.8 32 0 44.8-6.4 6.4-12.8 9.6-22.4 9.6z" fill="#333333" p-id="4485"></path><path d="M896 608c-9.6 0-16-3.2-22.4-9.6L512 236.8 150.4 598.4c-12.8 12.8-32 12.8-44.8 0s-12.8-32 0-44.8l384-384c12.8-12.8 32-12.8 44.8 0l384 384c12.8 12.8 12.8 32 0 44.8-6.4 6.4-12.8 9.6-22.4 9.6z" fill="#333333" p-id="4486"></path></svg>