<?xml version="1.0" standalone="no"?><!DOCTYPE svg PUBLIC "-//W3C//DTD SVG 1.1//EN" "http://www.w3.org/Graphics/SVG/1.1/DTD/svg11.dtd"><svg t="1619599592651" class="icon" viewBox="0 0 1024 1024" version="1.1" xmlns="http://www.w3.org/2000/svg" p-id="4616" xmlns:xlink="http://www.w3.org/1999/xlink" width="200" height="200"><defs><style type="text/css"></style></defs><path d="M202.79144297 879.15937185a44.2489363 44.2489363 0 0 1-31.28737186-75.53630815L463.12713482 512 171.50407111 220.3769363A44.2489363 44.2489363 0 0 1 234.07881482 157.80219259l299.4873837 299.43883852a77.46597925 77.46597925 0 0 1 0 109.46939259L234.07881482 866.19780741a44.11543703 44.11543703 0 0 1-31.28737185 12.96156444z" fill="#333333" p-id="4617"></path><path d="M512 879.15937185a44.2489363 44.2489363 0 0 1-31.28737185-75.53630815L772.28714667 512 480.66408297 220.3769363a44.2489363 44.2489363 0 0 1 62.5747437-62.57474371l299.4873837 299.43883852a77.25966222 77.25966222 0 0 1 0 109.46939259L543.25096297 866.19780741A44.11543703 44.11543703 0 0 1 512 879.15937185z" fill="#333333" p-id="4618"></path></svg>