<?xml version="1.0" standalone="no"?><!DOCTYPE svg PUBLIC "-//W3C//DTD SVG 1.1//EN" "http://www.w3.org/Graphics/SVG/1.1/DTD/svg11.dtd"><svg t="1619599600559" class="icon" viewBox="0 0 1024 1024" version="1.1" xmlns="http://www.w3.org/2000/svg" p-id="5010" xmlns:xlink="http://www.w3.org/1999/xlink" width="200" height="200"><defs><style type="text/css"></style></defs><path d="M921.6 648.53333333h-34.13333333V512H546.13333333v-68.26666667h102.4a68.46933333 68.46933333 0 0 0 68.26666667-68.26666666V238.93333333a68.46933333 68.46933333 0 0 0-68.26666667-68.26666666H375.46666667a68.46933333 68.46933333 0 0 0-68.26666667 68.26666666v136.53333334a68.46933333 68.46933333 0 0 0 68.26666667 68.26666666h102.4v68.26666667H136.53333333v136.53333333h-34.13333333a68.46933333 68.46933333 0 0 0-68.26666667 68.26666667v68.26666667a68.46933333 68.46933333 0 0 0 68.26666667 68.26666666h136.53333333a68.46933333 68.46933333 0 0 0 68.26666667-68.26666666v-68.26666667a68.46933333 68.46933333 0 0 0-68.26666667-68.26666667h-34.13333333v-68.26666666h273.06666667v68.26666666h-34.13333334a68.46933333 68.46933333 0 0 0-68.26666666 68.26666667v68.26666667a68.46933333 68.46933333 0 0 0 68.26666666 68.26666666h136.53333334a68.46933333 68.46933333 0 0 0 68.26666666-68.26666666v-68.26666667a68.46933333 68.46933333 0 0 0-68.26666666-68.26666667h-34.13333334v-68.26666666h273.06666667v68.26666666h-34.13333333a68.46933333 68.46933333 0 0 0-68.26666667 68.26666667v68.26666667a68.46933333 68.46933333 0 0 0 68.26666667 68.26666666h136.53333333a68.46933333 68.46933333 0 0 0 68.26666667-68.26666666v-68.26666667a68.46933333 68.46933333 0 0 0-68.26666667-68.26666667z" fill="#333333" p-id="5011"></path></svg>