<?xml version="1.0" standalone="no"?><!DOCTYPE svg PUBLIC "-//W3C//DTD SVG 1.1//EN" "http://www.w3.org/Graphics/SVG/1.1/DTD/svg11.dtd"><svg t="1619599568535" class="icon" viewBox="0 0 1024 1024" version="1.1" xmlns="http://www.w3.org/2000/svg" p-id="3686" xmlns:xlink="http://www.w3.org/1999/xlink" width="200" height="200"><defs><style type="text/css"></style></defs><path d="M512.0009375 46.698125C254.575625 46.698125 45.89375 255.3809375 45.89375 512.80625S254.575625 978.9125 512 978.9125s466.10625-208.6809375 466.10625-466.10625S769.4271875 46.698125 512.001875 46.698125z m199.8853125 605.5659375c16.685625 16.6903125 16.685625 43.7409375 0 60.4275-16.685625 16.6846875-43.741875 16.6846875-60.4275 0L512.0009375 573.2328125 372.5384375 712.690625c-16.6865625 16.6846875-43.73625 16.6846875-60.421875 0-16.69125-16.6865625-16.69125-43.7371875 0-60.4275L451.5734375 512.80625 312.115625 373.3475c-16.6903125-16.685625-16.6903125-43.7409375 0-60.4265625 16.6865625-16.685625 43.73625-16.685625 60.421875 0l139.4634375 139.4578125 139.4578125-139.4578125c16.685625-16.685625 43.741875-16.685625 60.4275 0 16.685625 16.685625 16.685625 43.7409375 0 60.4265625L572.4275 512.80625l139.45875 139.4578125z m0 0" fill="#333333" p-id="3687"></path></svg>