<?xml version="1.0" standalone="no"?><!DOCTYPE svg PUBLIC "-//W3C//DTD SVG 1.1//EN" "http://www.w3.org/Graphics/SVG/1.1/DTD/svg11.dtd"><svg t="1619599659080" class="icon" viewBox="0 0 1097 1024" version="1.1" xmlns="http://www.w3.org/2000/svg" p-id="6191" xmlns:xlink="http://www.w3.org/1999/xlink" width="214.2578125" height="200"><defs><style type="text/css"></style></defs><path d="M955.99512737 860.93995224h-71.60079885v-425.79877121a339.09282037 339.09282037 0 0 0-27.45093823-133.97199362 348.60787646 348.60787646 0 0 0-184.85375647-183.71195013A338.80736838 338.80736838 0 0 0 538.45066767 90.17281277a348.2510625 348.2510625 0 0 0-319.75346888 210.99637464 340.16326391 340.16326391 0 0 0-27.45093741 134.186082l0.73741691 425.6322583h-66.6053943a36.49024128 36.49024128 0 0 0 1.35589555 72.93290707h830.54548059a36.49024128 36.49024128 0 1 0-1.35589554-72.93290707zM518.89722613 825.40121707V568.20924402h-129.21446475l177.47958828-330.86229703v269.51397117H691.95231385z" fill="#333333" p-id="6192"></path></svg>