<?xml version="1.0" standalone="no"?><!DOCTYPE svg PUBLIC "-//W3C//DTD SVG 1.1//EN" "http://www.w3.org/Graphics/SVG/1.1/DTD/svg11.dtd"><svg t="1619599654213" class="icon" viewBox="0 0 1024 1024" version="1.1" xmlns="http://www.w3.org/2000/svg" p-id="5929" xmlns:xlink="http://www.w3.org/1999/xlink" width="200" height="200"><defs><style type="text/css"></style></defs><path d="M902.0003 512a89.7 89.7 0 0 0-30.24 5.58l-136.29-204.45A104.1 104.1 0 0 0 752.0003 257a105 105 0 1 0-210 0c0 26.52 10.17 50.49 26.4 68.97l-137.37 251.85A147.21 147.21 0 0 0 392.0003 572c-29.82 0-57.51 9-80.88 24.06l-110.01-132C207.8303 451.46 212.0003 437.3 212.0003 422a90 90 0 1 0-54.96 82.92l110.82 132.99A149.37 149.37 0 0 0 242.0003 722c0 82.71 67.29 150 150 150s150-67.29 150-150c0-47.61-22.71-89.61-57.42-117.09l134.76-247.05c8.88 2.43 18.03 4.14 27.66 4.14 15.27 0 29.67-3.42 42.75-9.27l135.39 203.07A89.1 89.1 0 0 0 812.0003 602a90 90 0 1 0 90-90zM392.0003 812c-49.62 0-90-40.38-90-90s40.38-90 90-90 90 40.38 90 90-40.38 90-90 90z" fill="#333333" p-id="5930"></path></svg>