<?xml version="1.0" standalone="no"?><!DOCTYPE svg PUBLIC "-//W3C//DTD SVG 1.1//EN" "http://www.w3.org/Graphics/SVG/1.1/DTD/svg11.dtd"><svg t="1619599603326" class="icon" viewBox="0 0 1024 1024" version="1.1" xmlns="http://www.w3.org/2000/svg" p-id="5141" xmlns:xlink="http://www.w3.org/1999/xlink" width="200" height="200"><defs><style type="text/css"></style></defs><path d="M856.064 135.68h-124.928v69.632c0 16.384-13.312 29.184-29.184 29.184H323.584c-15.872 0-29.184-13.312-29.184-29.184V136.192H169.472c-18.432 0-33.792 14.848-33.792 33.792v687.616c0 18.432 14.848 33.792 33.792 33.792h687.616c14.848 0 32.256-4.096 32.256-34.304V169.472c0.512-17.92-14.848-33.792-33.28-33.792zM332.288 398.848l89.088-89.088c10.24-10.24 28.16-10.752 38.4 0 9.728 10.24 9.216 25.6-0.512 36.352l-46.08 46.08h259.072c14.336 0 27.648 12.288 27.136 26.624-0.512 14.336-10.752 25.088-25.088 25.088H413.696l45.056 45.056c9.728 9.728 10.24 25.088 1.536 35.328-5.12 6.144-12.288 9.216-19.456 9.216-6.656 0-13.312-2.048-18.432-7.68L332.288 435.712c-10.24-10.24-10.24-26.112 0-36.864z m360.96 248.832l-93.696 93.696c-5.12 4.608-11.264 7.68-18.432 7.68-6.656 0-13.312-2.048-18.944-8.192-9.728-10.24-9.216-27.136 1.024-37.376l48.128-48.128H352.256c-14.336 0-27.648-12.288-27.136-26.624 0.512-13.824 11.264-25.088 25.6-25.088h261.12l-46.08-46.08c-10.24-10.24-10.752-28.16 0-38.4 10.24-9.728 25.6-9.216 36.352 0.512l91.136 91.136c5.12 5.12 7.68 11.264 7.68 18.432-0.512 7.168-3.072 13.824-7.68 18.432z" fill="#2C2C2C" p-id="5142"></path><path d="M361.472 192c-11.264 0-20.992-9.728-20.992-20.992v-87.04c0-11.264 9.728-20.992 20.992-20.992h302.592c11.264 0 20.992 9.728 20.992 20.992v86.016c0 11.264-9.728 20.992-20.992 20.992H361.472v1.024z" fill="#2C2C2C" p-id="5143"></path></svg>