<?xml version="1.0" standalone="no"?><!DOCTYPE svg PUBLIC "-//W3C//DTD SVG 1.1//EN" "http://www.w3.org/Graphics/SVG/1.1/DTD/svg11.dtd"><svg t="1619599656827" class="icon" viewBox="0 0 1024 1024" version="1.1" xmlns="http://www.w3.org/2000/svg" p-id="6060" xmlns:xlink="http://www.w3.org/1999/xlink" width="200" height="200"><defs><style type="text/css"></style></defs><path d="M812.46875 97.34375H211.4375c-20.71875 0-41.4375 20.8125-41.4375 41.71875v750.65625c0 20.8125 20.71875 41.71875 41.4375 41.71875h601.03125c20.71875 0 41.4375-20.8125 41.4375-41.71875V139.0625c0-20.90625-20.71875-41.71875-41.4375-41.71875zM617.65625 798.03125H306.78125c-20.71875 0-41.4375-20.8125-41.4375-41.71875 0-20.8125 20.71875-41.71875 41.4375-41.71875h310.875c20.71875 0 41.4375 20.8125 41.4375 41.71875 0 20.8125-16.59375 41.71875-41.4375 41.71875z m95.34375-154.3125H306.78125c-20.71875 0-41.4375-20.8125-41.4375-41.71875 0-20.8125 20.71875-41.71875 41.4375-41.71875h410.34375c20.71875 0 41.4375 20.8125 41.4375 41.71875 0 20.8125-20.71875 41.71875-45.5625 41.71875z m49.6875-266.90625c0 8.34375-12.46875 16.6875-20.71875 8.34375l-45.5625-45.84375-161.625 137.53125c-8.25 8.34375-20.71875 8.34375-33.1875 0l-70.5-75.09375c-8.25-8.34375-24.84375-8.34375-33.1875 0l-74.625 75.09375c-16.59375 12.46875-37.3125 12.46875-49.78125 0-12.46875-12.46875-12.46875-37.5 0-50.0625l124.3125-125.15625c8.25-8.34375 24.84375-8.34375 33.1875 0l74.625 75.09375c8.25 12.46875 20.71875 12.46875 29.0625 4.125l107.8125-91.78125-37.3125-37.5c-8.25-8.34375-4.125-20.8125 8.25-20.8125h136.78125c8.25 0 12.46875 4.21875 12.46875 12.46875v133.59375z" fill="#333333" p-id="6061"></path></svg>