<?xml version="1.0" standalone="no"?><!DOCTYPE svg PUBLIC "-//W3C//DTD SVG 1.1//EN" "http://www.w3.org/Graphics/SVG/1.1/DTD/svg11.dtd"><svg t="1619599638739" class="icon" viewBox="0 0 1024 1024" version="1.1" xmlns="http://www.w3.org/2000/svg" p-id="5404" xmlns:xlink="http://www.w3.org/1999/xlink" width="200" height="200"><defs><style type="text/css"></style></defs><path d="M512 64l359.776 89.92a32 32 0 0 1 24.224 31.04v346.592a352 352 0 0 1-113.696 259.04C692.224 873.472 602.112 929.952 512 960c-90.112-30.048-180.224-86.496-270.304-169.408A352 352 0 0 1 128 531.552V184.992a32 32 0 0 1 24.224-31.04L512 64z m0 128l-166.176 304.672a32 32 0 0 0 24.32 47.104l3.776 0.224H512v224l166.176-304.672a32 32 0 0 0-24.32-47.104L650.048 416H512V192z" fill="#333333" p-id="5405"></path></svg>