<?xml version="1.0" standalone="no"?><!DOCTYPE svg PUBLIC "-//W3C//DTD SVG 1.1//EN" "http://www.w3.org/Graphics/SVG/1.1/DTD/svg11.dtd"><svg t="1619599661430" class="icon" viewBox="0 0 1109 1024" version="1.1" xmlns="http://www.w3.org/2000/svg" p-id="6322" xmlns:xlink="http://www.w3.org/1999/xlink" width="216.6015625" height="200"><defs><style type="text/css"></style></defs><path d="M1032.00000031 591.99999969l-129.96 64.8 45.96 138-113.16 113.20000031-137.88-46.00000031L632 992h-160.00000031l-64.99999969-130.00000031-137.88 46.00000031L156.00000031 794.79999969l45.96-138L72.00000031 591.99999969v-159.99999938l129.96-64.8L156.00000031 229.20000031 269.12 116l137.88 46.00000031L471.99999969 32h160.00000031l64.99999969 130.00000031 137.88-46.00000031 113.16 113.20000031-45.96 138L1032.00000031 432.00000031v159.99999938zM552.00000031 351.99999969a160.00000031 160.00000031 0 1 0 159.99999938 160.00000031 160.00000031 160.00000031 0 0 0-159.99999938-160.00000031z" fill="#333333" p-id="6323"></path></svg>