<?xml version="1.0" standalone="no"?><!DOCTYPE svg PUBLIC "-//W3C//DTD SVG 1.1//EN" "http://www.w3.org/Graphics/SVG/1.1/DTD/svg11.dtd"><svg t="1619599607501" class="icon" viewBox="0 0 1024 1024" version="1.1" xmlns="http://www.w3.org/2000/svg" p-id="5273" xmlns:xlink="http://www.w3.org/1999/xlink" width="200" height="200"><defs><style type="text/css"></style></defs><path d="M297.4476192 154.39969493A143.04792427 143.04792427 0 0 0 440.4955424 297.4476192h143.0089152A143.04792427 143.04792427 0 0 0 726.5523808 154.39969493h71.5044576A143.04792427 143.04792427 0 0 1 941.1047616 297.4476192v500.6092192A143.04792427 143.04792427 0 0 1 798.0568384 941.1047616H225.9431616A143.04792427 143.04792427 0 0 1 82.8952384 798.0568384V297.4476192a143.04792427 143.04792427 0 0 1 143.0479232-143.04792427H297.4476192z m0 0h429.1047616-429.1047616z m250.32411413 286.09584747a35.77173333 35.77173333 0 1 0 0 71.5044576h214.5523808a35.77173333 35.77173333 0 0 0 0-71.5044576h-214.5523808z m0 214.55238187a35.77173333 35.77173333 0 1 0 0 71.50445653h214.5523808a35.77173333 35.77173333 0 0 0 0-71.50445653h-214.5523808z m-235.50049493-199.72876267l-25.27817173-25.3171808a35.77173333 35.77173333 0 0 0-50.59535254 50.59535253l50.59535254 50.5563424a35.65470507 35.65470507 0 0 0 50.5563424 0l101.151696-101.15169493a35.77173333 35.77173333 0 1 0-50.59535254-50.5563424L312.2712384 455.28015253z m0 214.5523808l-25.27817173-25.3171808a35.77173333 35.77173333 0 0 0-50.59535254 50.59535253l50.59535254 50.55634347a35.65470507 35.65470507 0 0 0 50.5563424 0l101.151696-101.151696a35.77173333 35.77173333 0 1 0-50.59535254-50.5563424L312.2712384 669.83253333zM440.4955424 82.8952384h143.0089152a71.5044576 71.5044576 0 1 1 0 143.0479232h-143.0089152a71.5044576 71.5044576 0 0 1 0-143.0479232z" fill="#333333" p-id="5274"></path></svg>