<?xml version="1.0" standalone="no"?><!DOCTYPE svg PUBLIC "-//W3C//DTD SVG 1.1//EN" "http://www.w3.org/Graphics/SVG/1.1/DTD/svg11.dtd"><svg t="1619599597797" class="icon" viewBox="0 0 1024 1024" version="1.1" xmlns="http://www.w3.org/2000/svg" p-id="4879" xmlns:xlink="http://www.w3.org/1999/xlink" width="200" height="200"><defs><style type="text/css"></style></defs><path d="M90.125 195.68883503C90.125 137.38753843 137.39881863 90.125 195.68883503 90.125L346.16830796 90.125C404.46960456 90.125 451.73214298 137.39881863 451.73214298 195.68883503L451.73214298 346.16830796C451.73214298 404.46960456 404.45832434 451.73214298 346.16830796 451.73214298L195.68883503 451.73214298C137.38753843 451.73214298 90.125 404.45832434 90.125 346.16830796L90.125 195.68883503ZM90.125 677.8316904C90.125 619.53039544 137.39881863 572.26785702 195.68883503 572.26785702L346.16830796 572.26785702C404.46960456 572.26785702 451.73214298 619.54167483 451.73214298 677.8316904L451.73214298 828.31116497C451.73214298 886.61245993 404.45832434 933.875 346.16830796 933.875L195.68883503 933.875C137.38753843 933.875 90.125 886.60117972 90.125 828.31116497L90.125 677.8316904ZM572.26785702 195.68883503C572.26785702 137.38753843 619.54167483 90.125 677.8316904 90.125L828.31116497 90.125C886.61245993 90.125 933.875 137.39881863 933.875 195.68883503L933.875 346.16830796C933.875 404.46960456 886.60117972 451.73214298 828.31116497 451.73214298L677.8316904 451.73214298C619.53039544 451.73214298 572.26785702 404.45832434 572.26785702 346.16830796L572.26785702 195.68883503ZM572.26785702 677.8316904C572.26785702 619.53039544 619.54167483 572.26785702 677.8316904 572.26785702L828.31116497 572.26785702C886.61245993 572.26785702 933.875 619.54167483 933.875 677.8316904L933.875 828.31116497C933.875 886.61245993 886.60117972 933.875 828.31116497 933.875L677.8316904 933.875C619.53039544 933.875 572.26785702 886.60117972 572.26785702 828.31116497L572.26785702 677.8316904Z" fill="#333333" p-id="4880"></path></svg>